<?xml version="1.0" encoding="UTF-8" standalone="yes"?>
<svg version="1.1" id="Layer_1" xmlns:x="&amp;ns_extend;" xmlns:i="&amp;ns_ai;" xmlns:graph="&amp;ns_graphs;" xmlns="http://www.w3.org/2000/svg" xmlns:xlink="http://www.w3.org/1999/xlink" x="0px" y="0px" viewBox="0 0 277.361 315" style="enable-background:new 0 0 277.361 315;" xml:space="preserve">
      <style type="text/css">.st0{fill:#D64F34;}	.st1{fill:#FFA476;}	.st2{fill:#771100;}	.st3{opacity:0.33;enable-background:new    ;}</style>
    <metadata>
              <sfw>
                      <slices/>
            <sliceSourceBounds bottomLeftOrigin="true" height="314.999" width="277.361" x="0" y="0.001"/>
                  </sfw>
          </metadata>
    <g id="color_index_2" fill="rgba(104, 173, 247, 1)">
              <path d="M221.592,199.209l-9.508,5.642l-5.948-10.025l3.954-2.346c-4.271-4.092-10.114-8.946-17.677-13.434&#x9;&#x9;c-8.035-4.767-15.528-7.649-21.409-9.434c0.357,0.602,0.714,1.203,1.071,1.805l-12.959,7.689l-5.948-10.025l8.405-4.987&#x9;&#x9;c-0.544-0.861-1.845-2.659-4.236-3.861c-1.725-0.867-3.314-1.07-4.269-1.115c-24.43,14.306-48.861,28.612-73.291,42.918&#x9;&#x9;c-11.722,4.925-24.582,11.079-38.09,18.8c-16.066,9.183-29.821,18.738-41.342,27.709c0.05,10.645,0.101,21.29,0.152,31.934&#x9;&#x9;c0.126,26.676,29.096,43.199,52.121,29.728l27.569-16.129l73.238-42.852l78.059-46.232c-0.912-1.087-2.48-2.683-4.842-3.98&#x9;&#x9;C224.682,199.94,222.87,199.449,221.592,199.209z M14.447,263.767l-5.948-10.025l12.959-7.689l5.948,10.025L14.447,263.767z&#x9;&#x9; M38.559,306.927l-5.949-10.025l12.96-7.689l5.948,10.025L38.559,306.927z M43.437,246.86l-5.948-10.025l12.959-7.689l5.948,10.025&#x9;&#x9;L43.437,246.86z M67.548,290.021L61.6,279.996l12.959-7.689l5.948,10.025L67.548,290.021z M71.857,229.702l-5.948-10.025&#x9;&#x9;l12.959-7.689l5.948,10.025L71.857,229.702z M95.969,272.863l-5.949-10.025l12.96-7.689l5.948,10.025L95.969,272.863z&#x9;&#x9; M100.714,212.286l-5.948-10.025l12.959-7.689l5.948,10.025L100.714,212.286z M124.826,255.446l-5.949-10.025l12.96-7.689&#x9;&#x9;l5.948,10.025L124.826,255.446z M130.694,196.265l-5.949-10.025l12.959-7.689l5.949,10.025L130.694,196.265z M154.806,239.426&#x9;&#x9;l-5.948-10.025l12.959-7.689l5.949,10.025L154.806,239.426z M183.227,222.268l-5.948-10.025l12.959-7.689l5.948,10.025&#x9;&#x9;L183.227,222.268z"/>
          </g>
    <g id="color_index_1" fill="rgba(165, 213, 255, 1)">
              <path d="M79.405,116.015c-10.9-7.887-23.106-16.015-36.642-24.02C27.736,83.107,13.346,75.716,0,69.558&#x9;&#x9;c0,35.426,0,70.852,0,106.278l0.343,72.709l79.432-46.51L79.405,116.015z M10.04,82.77l11.657,0.118l-0.153,15.068L9.887,97.838&#x9;&#x9;L10.04,82.77z M9.45,115.963l11.656,0.118l-0.153,15.068l-11.656-0.118L9.45,115.963z M20.944,232.015l-11.657-0.118l0.153-15.068&#x9;&#x9;l11.656,0.118L20.944,232.015z M21.534,198.821l-11.657-0.118l0.153-15.068l11.657,0.118L21.534,198.821z M22.13,165.121&#x9;&#x9;l-11.657-0.118l0.153-15.068l11.657,0.118L22.13,165.121z M58.883,115.177l11.657,0.118l-0.153,15.068l-11.657-0.118&#x9;&#x9;L58.883,115.177z M70.967,198.035l-11.657-0.118l0.153-15.068l11.657,0.118L70.967,198.035z M71.563,164.335l-11.657-0.118&#x9;&#x9;l0.153-15.068l11.657,0.118L71.563,164.335z"/>
          </g>
    <g id="color_index_0" fill="rgba(3, 115, 224, 1)">
              <path d="M261.172,130.786l-29.785-17.531L78.995,23.549L46.219,4.256l0,0C25.751-7.732,0,7.029,0,30.749v38.809&#x9;&#x9;l79.405,46.457l73.661,43.103l78.414,45.876l29.767-17.628C282.765,174.624,282.724,143.47,261.172,130.786z M21.87,70.706&#x9;&#x9;L8.911,63.017l5.948-10.025l12.959,7.689L21.87,70.706z M38.971,9.831L51.93,17.52l-5.948,10.025l-12.959-7.689L38.971,9.831z&#x9;&#x9; M50.727,88.123l-12.959-7.689l5.948-10.025l12.959,7.689L50.727,88.123z M67.828,27.247l12.959,7.689l-5.948,10.025L61.88,37.273&#x9;&#x9;L67.828,27.247z M79.148,105.281l-12.959-7.689l5.948-10.025l12.959,7.689L79.148,105.281z M96.249,44.406l12.959,7.689&#x9;&#x9;L103.26,62.12l-12.959-7.689L96.249,44.406z M109.128,121.302l-12.959-7.689l5.948-10.025l12.959,7.689L109.128,121.302z&#x9;&#x9; M126.229,60.426l12.959,7.689L133.24,78.14l-12.959-7.689L126.229,60.426z M137.985,138.718l-12.959-7.689l5.949-10.025&#x9;&#x9;l12.959,7.689L137.985,138.718z M149.137,87.868l5.949-10.025l12.959,7.689l-5.949,10.025L149.137,87.868z M166.406,155.876&#x9;&#x9;l-12.959-7.689l5.949-10.025l12.959,7.689L166.406,155.876z M183.506,95.001l12.96,7.689l-5.949,10.025l-12.959-7.689&#x9;&#x9;L183.506,95.001z M195.395,172.783l-12.959-7.689l5.948-10.025l12.959,7.689L195.395,172.783z M212.496,111.907l12.959,7.689&#x9;&#x9;l-5.948,10.025l-12.959-7.689L212.496,111.907z M224.459,190.47l-12.959-7.689l5.949-10.025l12.959,7.689L224.459,190.47z&#x9;&#x9; M249.001,147.309l-12.959-7.689l5.948-10.025l12.96,7.689L249.001,147.309z"/>
          </g>
    <g>
              <polygon class="st3" points="0,69.558 203.416,221.607 231.445,204.96 &#x9;"/>
          </g>
  </svg>